<?xml version="1.0" encoding="UTF-8"?>
<svg id="Layer_1" xmlns="http://www.w3.org/2000/svg" version="1.1" viewBox="0 0 340 40">
  <!-- Generator: Adobe Illustrator 29.8.2, SVG Export Plug-In . SVG Version: 2.1.1 Build 3)  -->
  <defs>
    <style>
      .st0 {
        stroke-width: 3.28px;
      }

      .st0, .st1, .st2 {
        fill: none;
        stroke: #fff;
        stroke-miterlimit: 10;
      }

      .st1 {
        stroke-width: 3.25px;
      }

      .st2 {
        stroke-width: 3.26px;
      }
    </style>
  </defs>
  <path class="st0" d="M41.25,37.99V14.4c0-6.51,5.28-11.8,11.8-11.8h0c6.51,0,11.8,5.28,11.8,11.8v23.59"/>
  <path class="st2" d="M134.04,36.36h25.43c6.51,0,11.8-3.66,11.8-8.18h0c0-4.52-5.28-8.18-11.8-8.18h-9.87"/>
  <path class="st2" d="M173.05,3.64h-25.37c-6.51,0-11.8,3.66-11.8,8.18h0c0,4.52,5.28,8.18,11.8,8.18h11.17"/>
  <path class="st0" d="M64.84,37.99V14.4c0-6.51,5.28-11.8,11.8-11.8h0c6.51,0,11.8,5.28,11.8,11.8v23.59"/>
  <path class="st0" d="M88.43,37.99V14.4c0-6.51,5.28-11.8,11.8-11.8h0c6.51,0,11.8,5.28,11.8,11.8v23.59"/>
  <path class="st0" d="M112.02,37.99V14.4c0-6.51,5.28-11.8,11.8-11.8h0c6.51,0,11.8,5.28,11.8,11.8v23.59"/>
  <line class="st0" x1="88.51" y1="26.19" x2="111.94" y2="26.19"/>
  <path class="st0" d="M39.89,3.65h-17.41C13.45,3.65,6.13,10.97,6.13,20h0c0,9.03,7.32,16.35,16.35,16.35h17.33"/>
  <line class="st0" x1="194.79" y1="3.65" x2="230.86" y2="3.65"/>
  <line class="st1" x1="300.96" y1="20" x2="333.87" y2="20"/>
  <line class="st0" x1="227.03" y1="20" x2="258.46" y2="20"/>
  <line class="st1" x1="212.83" y1="38.03" x2="212.83" y2="2.49"/>
  <line class="st0" x1="333.87" y1="38.03" x2="333.87" y2="1.97"/>
  <line class="st0" x1="302.4" y1="38.03" x2="302.4" y2="1.97"/>
  <path class="st0" d="M262.29,3.65h-17.41c-9.03,0-16.35,7.32-16.35,16.35h0c0,9.03,7.32,16.35,16.35,16.35h17.33"/>
  <path class="st0" d="M298.5,3.65h-17.41c-9.03,0-16.35,7.32-16.35,16.35h0c0,9.03,7.32,16.35,16.35,16.35h17.33"/>
</svg>